<svg t="1600594743872" class="icon" viewBox="0 0 1024 1024" version="1.1" xmlns="http://www.w3.org/2000/svg" p-id="1445" width="200" height="200"><path d="M712.84998203 294.34666601a278.79314715 278.79314715 0 0 1-1.13640084 24.16408016c-0.17950792 1.98472047-0.40534042 3.96365034-0.63406825 5.94258021-0.85990077 7.50024558 1.32604228-9.20846597 0.23596604-1.76033557-0.66446877 4.54705102-1.50699782 9.06514918-2.41901377 13.56732321-1.54753187 7.63777178-3.5380429 15.18144671-5.78768229 22.64115824-1.11613383 3.70162671-2.35821272 7.35837643-3.64372093 11.00499266-1.05822804 3.00096682-6.97764596 17.53242121-1.9601105 5.66608016-6.18288919 14.6197607-13.91041494 28.56057618-22.7178834 41.75730243-2.10053201 3.1500742-4.31108499 6.22921382-6.54914321 9.2822958-1.44764438 1.97024401-5.89046502 7.60158069 1.06836155-1.31011817-1.16535373 1.48962608-2.36255563 2.95319457-3.55686227 4.41676304-5.18111928 6.33778713-10.73573079 12.36433073-16.50025076 18.17228002-5.32443606 5.36352246-10.94274394 10.42738253-16.71884506 15.29436298-1.44619674 1.21746894-2.91989874 2.40308969-4.38925778 3.58871045-5.59948851 4.50651697 7.07753341-5.36641776 1.34486165-1.02637988-3.52211881 2.66945624-7.14267742 5.20428158-10.7979795 7.68409641-13.13592518 8.91169886-27.19255223 16.42642089-41.75875008 22.71643576 11.69986195-5.05227892-1.06257097 0.27215714-3.85362936 1.30432761-3.62200626 1.33907106-7.28744185 2.5536447-10.96590626 3.72478901-8.04166458 2.56088293-16.23533183 4.61798562-24.49124779 6.36094945-3.84928642 0.81357615-7.72897339 1.4867308-11.61155564 2.11790374-2.53193003 0.411131-9.97716513 1.35789044 1.77915495-0.17661261-1.97169164 0.25912835-3.95062152 0.46758913-5.93099905 0.68039288-8.68441869 0.92504475-17.42095259 1.29708938-26.15024828 1.33328046-8.06627454 0.03040053-16.13254908-0.40823572-24.1626325-1.13784848-1.98472047-0.17950792-3.96509798-0.40534042-5.94402786-0.63262059-7.49879795-0.86134841 9.2099136 1.32604228 1.7617832 0.23451838-4.54849868-0.66446877-9.06659681-1.50699782-13.5673232-2.41901378-7.63921943-1.54608422-15.18289435-3.53659523-22.64405355-5.78768227-3.70017905-1.11613383-7.35837643-2.35821272-11.003545-3.64372093-3.00241446-1.05822804-17.53386885-6.97909361-5.66608014-1.96011051-14.62120832-6.18288919-28.56347144-13.90896728-41.75875007-22.71643576-3.15152182-2.1034273-6.23066145-4.31253263-9.28229582-6.5520385-1.97169164-1.44764438-7.60158069-5.88901738 1.30867052 1.06836157a259.23836672 259.23836672 0 0 1-4.41821068-3.55686227c-6.33778713-5.18111928-12.36433073-10.73573079-18.17228002-16.50025076-5.36352246-5.32298842-10.42738253-10.9412963-15.29436297-16.71884506-1.21746894-1.44619674-2.40308969-2.91845109-3.58871043-4.39070544-4.50796464-5.59659321 5.36641776 7.07898107 1.02493221 1.34775694-2.66800861-3.52356645-5.20283394-7.14412505-7.68409642-10.79797949-8.91025122-13.13737283-16.42642089-27.19399986-22.71643576-41.75875008 5.05517421 11.69986195-0.27215714-1.06257097-1.30432759-3.85362937-1.33907106-3.62055861-2.5536447-7.28744185-3.72478901-10.96590627-2.56088293-8.04166458-4.61943324-16.23533183-6.36094945-24.48980012-0.8121285-3.85073409-1.4867308-7.72897339-2.11790375-11.6130033-0.411131-2.53193003-1.35644281-9.97571749 0.1766126 1.77915495-0.25912835-1.9731393-0.46758913-3.95206919-0.68039286-5.93099904-0.92504475-8.68441869-1.29708938-17.41950494-1.33328048-26.15024827-0.03040053-8.06772218 0.40968335-16.13254908 1.1378485-24.16408016 0.18095554-1.98327282 0.40678807-3.96365034 0.63406824-5.94258021 0.85845312-7.49879795-1.32748991 9.2099136-0.23741368 1.76033557 0.66446877-4.54560338 1.50699782-9.06370153 2.41901378-13.56732321 1.54753187-7.63632417 3.5380429-15.18144671 5.78768227-22.64260591 1.11613383-3.70162671 2.35821272-7.35837643 3.64372094-11.00499265 1.05822804-3.00096682 6.97909361-17.53242121 1.96011049-5.66608013 6.18288919-14.62120832 13.90896728-28.56202381 22.71643576-41.75875007 2.1034273-3.1500742 4.31253263-6.22921382 6.55203853-9.28084819 1.44764438-1.97024401 5.89046502-7.60158069-1.06836158 1.31011817 1.16535373-1.48962608 2.35966036-2.95464221 3.55686227-4.41676302 5.18111928-6.33778713 10.73573079-12.36433073 16.50025074-18.17517533 5.32298842-5.36207482 10.9412963-10.42448725 16.71884507-15.29291533 1.44619674-1.21746894 2.91845109-2.40308969 4.39070542-3.58871044 5.59804086-4.50651697-7.07898107 5.36641776-1.34775691 1.02493223 3.52356645-2.66800861 7.14412505-5.20283394 10.79797949-7.68264878 13.13737283-8.91169886 27.19399986-16.42642089 41.76019771-22.71788342-11.7013096 5.05372657 1.06112333-0.27215714 3.85362937-1.30287994 3.62055861-1.33907106 7.28744185-2.55509235 10.96590626-3.72478902 8.04166458-2.56088293 16.23533183-4.62088089 24.49124777-6.36094943 3.84928642-0.81357615 7.72897339-1.4867308 11.61155565-2.11935141 2.53337768-0.40968335 9.97571749-1.35499515-1.77915494 0.17661265 1.97169164-0.25623306 3.95062152-0.4661415 5.93099905-0.67894524 8.68441869-0.92504475 17.41950494-1.29708938 26.14880061-1.33328047 8.06772218-0.03184818 16.13399672 0.40968335 24.16408018 1.13784849 1.98472047 0.18095554 3.96365034 0.40678807 5.94402785 0.63406823 7.49879795 0.85990077-9.2099136-1.32748991-1.76178322-0.23741368 4.54849868 0.66446877 9.06659681 1.50699782 13.56587557 2.42046143 7.63921943 1.54608422 15.18289435 3.53659523 22.64405356 5.78768226 3.70017905 1.11613383 7.35982407 2.35821272 11.00354499 3.64372093 3.00241446 1.0567804 17.53386885 6.97909361 5.66608014 1.95866284 14.62120832 6.18433684 28.56202381 13.91041494 41.75875006 22.71788342 3.15152182 2.1034273 6.23066145 4.31108499 9.2808482 6.5520385 1.97169164 1.44764438 7.60158069 5.88901738-1.3072229-1.06836155 1.48817842 1.16390609 2.95174691 2.35966036 4.41676303 3.55686227 6.33923478 5.18111928 12.36433073 10.73573079 18.17372767 16.4988031 5.36207482 5.32588371 10.4259349 10.94419158 15.29291535 16.72029272 1.21891658 1.44619674 2.40164204 2.91845109 3.58871043 4.38925778 4.50796464 5.59948851-5.36641776-7.07753341-1.02493222-1.34486163 2.66800861 3.52356645 5.20283394 7.14412505 7.68409642 10.7979795 8.91025122 13.13737283 16.42642089 27.19399986 22.71643576 41.75875007-5.05517421-11.7013096 0.27215714 1.06257097 1.30287996 3.85362935 1.34051869 3.62055861 2.5536447 7.28744185 3.72478901 10.96590626 2.56088293 8.04166458 4.61798562 16.23533183 6.36094944 24.4912478 0.8121285 3.85073409 1.4867308 7.72897339 2.11790376 11.61300328 0.411131 2.53193003 1.35789044 9.97571749-0.17661263-1.77915495 0.2576807 1.9731393 0.46758913 3.95206919 0.67894522 5.9324467 0.93083534 8.68297104 1.30287996 17.4180573 1.33762342 26.14880062 0.07962045 19.7270501 16.40325858 36.19110976 36.19110976 36.19110974 19.6720396 0 36.27073018-16.46261201 36.19110974-36.19110974-0.28518593-72.97141077-28.01191894-142.62337293-76.96980458-196.54088823-48.70599549-53.63956758-116.89004626-84.80300835-188.39499323-91.85158887-69.23648824-6.8256433-142.40912154 14.42288106-197.4862 56.7838512-56.63040088 43.55238146-97.59728946 105.4608938-110.79256807 176.23478035-13.46164518 72.2099498-0.1273927 147.9289896 39.40777557 210.13716432 38.18741135 60.08882333 98.05040216 104.58506893 166.49213362 124.07615299 70.9866903 20.21635391 147.96083778 10.94853452 213.24380917-22.70630225 63.53132167-32.74861139 110.93009428-89.8466014 136.5302377-155.91709135 12.26010034-31.64405873 17.83787417-66.36146646 17.97105744-100.21752581 0.07962045-19.72849774-16.51907011-36.19110976-36.19110974-36.19110974-19.7892988 0.00144765-36.11583224 16.46550728-36.19255738 36.19255739zM604.27665281 776.11113775h361.91109741c19.72994539 0 36.19110976-16.46405966 36.19110974-36.19110974 0-19.72994539-16.46116435-36.19110976-36.19110974-36.19110974H604.27665281c-19.72849774 0-36.19110976 16.46116435-36.19110976 36.19110974 0 19.7270501 16.46261201 36.19110976 36.19110976 36.19110974z" p-id="1446"></path><path d="M749.04109179 740.0894024v243.02330194c0 19.7270501 16.46261201 36.19110976 36.19110974 36.19110971 19.72994539 0 36.19110976-16.46405966 36.19110971-36.19110971V766.86213774v-26.77273534c0-19.7270501-16.46116435-36.19110976-36.19110971-36.19110974-19.72849774 0-36.19110976 16.46405966-36.19110974 36.19110974z" p-id="1447"></path><path d="M604.27665281 899.87894249h361.91109741c19.72994539 0 36.19110976-16.46405966 36.19110974-36.19110974 0-19.72994539-16.46116435-36.19110976-36.19110974-36.19110974H604.27665281c-19.72849774 0-36.19110976 16.46116435-36.19110976 36.19110974 0 19.7270501 16.46261201 36.19110976 36.19110976 36.19110974zM615.96927654 622.19758623l142.35266342 142.35266341c0.37928283 0.37638754 0.75422271 0.75422271 1.12916263 1.127715 13.94371076 13.94515841 37.23920428 13.94515841 51.18146739 0 13.94371076-13.94226312 13.94371076-37.23920428 0-51.1814674-47.4508878-47.44799253-94.90467089-94.90032796-142.35266342-142.35121578l-1.12916263-1.12771496c-13.94371076-13.94371076-37.23920428-13.94515841-51.18146739 0-13.94226312 13.94371076-13.94371076 37.23775665 0 51.18001973z" p-id="1448"></path><path d="M902.93292862 571.0175665l-142.35266342 142.35266341-1.12916261 1.12626733c-13.94371076 13.94660606-13.94371076 37.24209957 0 51.1814674 13.94371076 13.94515841 37.23920428 13.94515841 51.18146739 0l142.35266343-142.35121578 1.12771497-1.12916263c13.94515841-13.94226312 13.94515841-37.23775665 0-51.18001973-13.94226312-13.94515841-37.23630899-13.94371076-51.18001976 0z" p-id="1449"></path><path d="M104.8378907 974.94219938a449.47910657 449.47910657 0 0 1 2.93871812-50.37078652c0.22872781-1.97892987 0.48351323-3.95641212 0.73974628-5.935342-1.51857898 11.74618658-0.55589545 4.27923682-0.18095555 1.74875443 0.5805054-3.91732572 1.24352652-7.82162264 1.9340529-11.72302428 1.48528315-8.39199453 3.28180983-16.72753092 5.26942558-25.01384742 3.7797995-15.76050448 8.57005479-31.26911882 14.12900925-46.48820428a426.11412612 426.11412612 0 0 1 4.14460589-10.81100831c0.70934575-1.79073611 1.44474909-3.57278635 2.17870479-5.35194131-4.36320019 10.58083284-1.61991406 3.83336234-0.63551588 1.5649036 3.30786743-7.624743 6.88933965-15.12788387 10.63729098-22.54561373 7.1716303-14.19125795 15.23066662-27.92506028 23.93824762-41.22601694 4.16487291-6.36239708 8.54110191-12.58292505 13.03893302-18.71369902 1.12337205-1.53160776 2.26701112-3.04729144 3.41065017-4.56297512 4.34148552-5.75438645-5.46051464 6.98922711-1.02058928 1.3144611a432.62418293 432.62418293 0 0 1 8.36738458-10.31157098c10.11613899-12.13560292 20.97781486-23.63858523 32.36643327-34.58422446 5.46775287-5.25494912 11.10777541-10.32749507 16.8447901-15.2856771 2.87067883-2.47981483 5.79057756-4.90317154 8.72495273-7.30626125 1.46791142-1.20154484 2.95174691-2.38282266 4.43558242-3.56699577 7.53209378-6.00193365-4.82210348 3.64806387 0.17516498-0.15489796 17.67718566-13.45874989 36.47919097-25.41339726 56.02673317-35.96093428 9.55590061-5.15795696 19.34052906-9.88162061 29.2626837-14.29114542 2.39006089-1.06257097 11.3393985-4.79315057 0.19398433-0.13897386a429.48713754 429.48713754 0 0 1 8.94065176-3.59015809c5.39971357-2.11211317 10.85733292-4.07656659 16.33956222-5.96574252 21.58003492-7.43799686 43.79558573-12.97089372 66.28329367-16.84334247 2.60431226-0.44876975 5.21586273-0.85411019 7.82596558-1.25366006 9.97426985-1.52726482-6.31172952 0.77159446 0.22728017-0.07527749 5.95271372-0.76869916 11.92424683-1.37091923 17.90301816-1.89062359 12.11244061-1.05243748 24.27120583-1.50410251 36.42707577-1.5330554 19.7270501-0.04632462 36.19110976-16.42786853 36.19110975-36.19110976 0-19.69375429-16.46261201-36.23743437-36.19110975-36.19110973-137.32788974 0.32282471-271.24223403 62.60627692-357.97784761 169.49889101-67.46022858 83.13676966-105.01791461 186.48555028-105.26835709 293.74731371-0.04632462 19.72849774 16.49735545 36.19110976 36.19110975 36.19110976 19.76179357 0.00289528 36.14333748-16.45971671 36.18821445-36.18821449z" p-id="1450"></path></svg>