<svg t="1600595887364" class="icon" viewBox="0 0 1024 1024" version="1.1" xmlns="http://www.w3.org/2000/svg" p-id="1862" width="200" height="200"><path d="M896.024976 0H127.975024C57.443902 0 0 57.693659 0 127.975024v768.049952C0 966.331317 57.693659 1024 127.975024 1024h768.049952C966.331317 1024 1024 966.306341 1024 896.024976V127.900098A128.149854 128.149854 0 0 0 896.024976 0zM127.975024 64.012488h768.049952a63.987512 63.987512 0 0 1 0 127.975024H127.975024a63.987512 63.987512 0 0 1 0-127.975024z m768.049952 895.975024H127.975024a63.937561 63.937561 0 0 1-63.937561-63.937561V238.092488a126.376585 126.376585 0 0 0 63.937561 17.80761h768.049952c23.477073 0 45.056-6.718439 64.012487-17.80761v657.907512a63.937561 63.937561 0 0 1-64.012487 63.937561zM768.074927 405.354146a63.937561 63.937561 0 0 0-35.115707 117.310439c-15.784585 108.394146-108.444098 191.987512-220.834342 191.987513-112.64 0-205.049756-83.818146-220.759415-191.987513a63.937561 63.937561 0 1 0-99.128195-53.372878c0 24.551024 13.986341 45.755317 34.416391 56.32a288.468293 288.468293 0 0 0 285.720975 253.002927 288.293463 288.293463 0 0 0 285.671025-253.002927 63.687805 63.687805 0 0 0 34.466341-56.369951 64.586927 64.586927 0 0 0-64.437073-63.937561v0.049951z" p-id="1863"></path></svg>