<svg t="1600595797817" class="icon" viewBox="0 0 1024 1024" version="1.1" xmlns="http://www.w3.org/2000/svg" p-id="10670" width="200" height="200"><path d="M228.894118 295.152941c0 18.070588 18.070588 36.141176 36.141176 36.141176l493.929412 0c18.070588 0 36.141176-18.070588 36.141176-36.141176 0-18.070588-18.070588-36.141176-36.141176-36.141176L265.035294 259.011765C246.964706 265.035294 228.894118 277.082353 228.894118 295.152941L228.894118 295.152941z" p-id="10671"></path><path d="M758.964706 445.741176 265.035294 445.741176C246.964706 445.741176 228.894118 463.811765 228.894118 481.882353c0 18.070588 18.070588 36.141176 36.141176 36.141176l493.929412 0c18.070588 0 36.141176-18.070588 36.141176-36.141176C795.105882 463.811765 777.035294 445.741176 758.964706 445.741176L758.964706 445.741176z" p-id="10672"></path><path d="M758.964706 644.517647 265.035294 644.517647c-18.070588 0-36.141176 18.070588-36.141176 36.141176s18.070588 36.141176 36.141176 36.141176l493.929412 0c18.070588 0 36.141176-18.070588 36.141176-36.141176C795.105882 656.564706 777.035294 644.517647 758.964706 644.517647L758.964706 644.517647z" p-id="10673"></path><path d="M873.411765 0l-66.258824 0c-18.070588 0-42.164706 12.047059-42.164706 30.117647 0 18.070588 18.070588 36.141176 42.164706 36.141176l66.258824 0c42.164706 0 66.258824 24.094118 66.258824 66.258824l0 758.964706c0 42.164706-24.094118 66.258824-66.258824 66.258824L162.635294 957.741176c-42.164706 0-84.329412-24.094118-84.329412-66.258824L78.305882 132.517647c0-42.164706 24.094118-66.258824 66.258824-66.258824l84.329412 0c18.070588 0 24.094118-18.070588 24.094118-36.141176C259.011765 12.047059 246.964706 0 228.894118 0L150.588235 0C54.211765 0 18.070588 60.235294 18.070588 132.517647l0 752.941176c0 84.329412 48.188235 138.541176 138.541176 138.541176l716.8 0c90.352941 0 138.541176-48.188235 138.541176-138.541176L1011.952941 132.517647C1005.929412 60.235294 963.764706 0 873.411765 0L873.411765 0z" p-id="10674"></path><path d="M656.564706 66.258824l-289.129412 0c-18.070588 0-30.117647-12.047059-30.117647-30.117647l0 0C337.317647 12.047059 349.364706 0 367.435294 0l289.129412 0c18.070588 0 30.117647 12.047059 30.117647 30.117647l0 0C686.682353 54.211765 674.635294 66.258824 656.564706 66.258824z" p-id="10675"></path></svg>