<svg t="1600598056712" class="icon" viewBox="0 0 1024 1024" version="1.1" xmlns="http://www.w3.org/2000/svg" p-id="8246" width="200" height="200"><path d="M829.797514 641.926675c19.058897 0 31.786147 12.72725 31.786147 31.786147v127.080633h127.080632c19.122853 0 31.786147 12.791206 31.786147 31.850103s-19.058897 31.786147-31.786147 31.786147l-127.080632-0.063956v127.144588c0 12.72725-19.058897 31.786147-31.786147 31.786147-19.058897 0-31.786147-12.72725-31.786147-31.786147v-127.144588h-127.144588c-19.058897 0-31.722191-12.663294-31.722191-31.722191 0-19.122853 12.663294-31.786147 31.722191-31.786147l127.144588-0.063956v-127.080633c0-19.058897 12.72725-31.786147 31.786147-31.786147zM512 0c279.67972 0 508.45044 228.834676 508.45044 508.45044 0 25.4545 0 50.845044-6.395603 82.631191 0 19.058897-18.994941 31.786147-38.053838 25.4545-19.058897 0-31.786147-19.058897-25.4545-38.18175 6.395603-25.390544 6.395603-44.449441 6.395603-69.903941A442.191993 442.191993 0 0 0 512 63.572294c-247.893573 0-444.942102 203.380176-444.942102 451.273749A442.191993 442.191993 0 0 0 512 959.72419c25.4545 0 57.176691 0 82.631191-6.395603 19.058897-6.331647 31.786147 6.395603 38.117794 25.4545 6.395603 19.058897-6.395603 31.786147-25.390544 38.18175H512C232.32028 1016.900881 3.54956 788.130161 3.54956 508.45044 3.54956 228.77072 232.32028 0 512 0z m92.416464 262.859284a30.059334 30.059334 0 0 1 39.908563-14.454063 30.059334 30.059334 0 0 1 14.454062 39.908563L574.67691 468.797702h131.173818a30.059334 30.059334 0 0 1 0 60.054712H542.059334v63.95603h92.416464c20.593842 0 37.478234 13.430766 37.478234 29.995378 0 16.4367-16.884392 29.931422-37.478234 29.931423H542.059334v94.974704a30.059334 30.059334 0 0 1-29.995378 29.931423 30.059334 30.059334 0 0 1-29.995378-29.931423v-94.974704H389.588158c-20.593842 0-37.478234-13.430766-37.478234-29.931423s16.884392-30.059334 37.478234-30.059334H481.940666v-63.95603H318.213228A30.059334 30.059334 0 0 1 288.153894 498.857036a30.059334 30.059334 0 0 1 29.995378-29.995378H449.32309L365.220911 288.441696a30.059334 30.059334 0 0 1 54.362625-25.390544L512 461.25089z" p-id="8247"></path></svg>