<svg t="1600596149734" class="icon" viewBox="0 0 1024 1024" version="1.1" xmlns="http://www.w3.org/2000/svg" p-id="8100" width="200" height="200"><path d="M627.2 588.8H396.8c-192 0-334.933333 130.133333-334.933333 317.866667v19.2c0 98.133333 153.6 98.133333 347.733333 98.133333h206.933333c185.6 0 347.733333 0 347.733334-98.133333v-19.2c-2.133333-187.733333-145.066667-317.866667-337.066667-317.866667zM876.8 917.333333c-38.4 21.333333-177.066667 21.333333-262.4 21.333334h-206.933333c-89.6 0-224 0-262.4-19.2v-12.8c0-136.533333 102.4-232.533333 249.6-232.533334h232.533333c147.2 0 249.6 96 249.6 232.533334v10.666666zM501.333333 539.733333c151.466667 0 275.2-121.6 275.2-268.8 0-149.333333-123.733333-268.8-275.2-268.8-151.466667 0-275.2 121.6-275.2 268.8 0 147.2 123.733333 268.8 275.2 268.8z m0-454.4c104.533333 0 189.866667 83.2 189.866667 183.466667 0 102.4-85.333333 183.466667-189.866667 183.466667s-189.866667-83.2-189.866666-183.466667c0-100.266667 85.333333-183.466667 189.866666-183.466667z" p-id="8101"></path></svg>