<svg t="1600242330515" class="icon" viewBox="0 0 1024 1024" version="1.1" xmlns="http://www.w3.org/2000/svg" p-id="15685" width="500" height="500"><path d="M45.95712 400.36352l358.10304 0c8.4992-16.35328 17.98144-40.5504 28.44672-72.6016L88.13568 327.76192 88.13568 215.9104l150.10816 0c-30.74048-35.31776-62.13632-69.98016-94.18752-103.99744l87.31648-70.63552c41.85088 39.24992 84.03968 81.7664 126.55616 127.54944l-57.88672 47.09376L448.2048 215.92064c4.57728-47.74912 8.4992-106.60864 11.776-176.59904l135.39328 3.92192c-4.57728 66.06848-9.1648 123.61728-13.74208 172.67712l130.48832 0-48.06656-36.3008C706.56 135.13728 744.81664 88.3712 778.84416 39.31136l106.92608 67.69664c-30.73024 39.23968-60.81536 75.54048-90.25536 108.9024l153.05728 0 0 111.84128L567.90016 327.75168c-5.23264 28.12928-11.12064 52.3264-17.664 72.6016L998.6048 400.35328l0 115.77344L764.12928 516.12672c66.70336 61.4912 148.7872 103.34208 246.25152 125.58336-20.93056 30.74048-44.15488 71.61856-69.65248 122.64448-36.63872-13.07648-70.98368-28.78464-103.03488-47.09376-4.57728 45.12768-8.82688 85.67808-12.7488 121.6512-13.74208 100.07552-74.89536 150.10816-183.47008 150.10816-56.90368 0-108.58496-0.65536-155.01312-1.95584-4.58752-27.47392-13.73184-68.03456-27.47392-121.66144l154.03008 7.85408c50.36032 0 78.80704-20.60288 85.36064-61.80864 2.6112-20.93056 5.888-51.34336 9.80992-91.2384L447.22176 720.20992c-19.61984 72.6016-49.38752 129.1776-89.28256 169.728-55.6032 51.67104-136.704 94.17728-243.31264 127.5392-23.54176-40.5504-48.0768-79.80032-73.58464-117.72928 101.36576-22.24128 175.28832-52.31616 221.72672-90.25536 26.1632-23.552 45.45536-53.2992 57.88672-89.28256l-95.17056 0c-28.12928 15.04256-57.88672 29.42976-89.28256 43.17184-26.1632-39.89504-53.63712-77.50656-82.41152-112.83456 103.34208-40.5504 185.7536-85.36064 247.2448-134.41024L45.95712 516.13696 45.95712 400.36352zM396.20608 608.34816l302.1824 0c-26.81856-27.47392-51.68128-58.2144-74.56768-92.22144L486.47168 516.12672C461.6192 548.17792 431.52384 578.9184 396.20608 608.34816z" p-id="15686"></path></svg>