<svg t="1600241550446" class="icon" viewBox="0 0 1024 1024" version="1.1" xmlns="http://www.w3.org/2000/svg" p-id="8141" width="500" height="500"><path d="M974.798976 444.8256l-76.8 474.624A126.464 126.464 0 0 1 776.757376 1024H247.195776a126.5152 126.5152 0 0 1-121.2416-104.5504l-76.8-474.624a100.3008 100.3008 0 0 1 20.48-81.92A96.8192 96.8192 0 0 1 144.795776 327.936h734.4128a94.3104 94.3104 0 0 1 75.1104 34.9696 100.1472 100.1472 0 0 1 20.48 81.92zM295.221376 474.624a73.2672 73.2672 0 1 0 71.68 74.752v-1.536a72.8064 72.8064 0 0 0-71.68-73.216z m430.08 0a73.2672 73.2672 0 1 0 71.68 74.752v-1.536a72.8576 72.8576 0 0 0-71.4752-73.216z m35.84-181.4528a35.4304 35.4304 0 0 1-35.84-34.9696v-1.7408c0-104.5504-114.2784-183.0912-216.832-183.0912-104.192 0-211.7632 68.096-211.7632 181.4528a35.84 35.84 0 1 1-71.68 0.3584v-0.3584C225.179776 95.9488 370.331776 0 508.571776 0c136.6016 0 286.72 104.8064 286.72 254.8224a33.6896 33.6896 0 0 1-28.7232 37.9904 36.7104 36.7104 0 0 1-5.12 0.3584z" p-id="8142"></path></svg>