<svg t="1600242900275" class="icon" viewBox="0 0 1024 1024" version="1.1" xmlns="http://www.w3.org/2000/svg" p-id="2638" width="500" height="500"><path d="M782.83956269 76.76757225h75.64992124c46.04672444 0 83.23551321 37.33419948 83.23551321 83.24763079v772.40956751c0 46.04672444-37.34631703 83.19916054-83.23551321 83.19916055H130.16359629c-46.04672444 0-83.25974834-37.33419948-83.25974836-83.19916055V160.01520304c0-46.05884201 37.34631703-83.24763078 83.25974836-83.24763079h105.43488142V21.28126927c0-10.1545145 8.30052796-18.45504245 18.45504246-18.45504244h103.43548417c10.16663205 0 18.60045316 8.28841039 18.60045319 18.5883356v55.49842052h266.24700778v-55.49842052c0-10.16663205 8.27629285-18.58833561 18.45504246-18.5883356h103.56877733c10.14239693 0 18.57621805 8.28841039 18.57621804 18.5883356l-0.09694045 55.35300982zM150.49686038 252.32676801v131.29375247h643.34544594V252.32676801H150.49686038z m0 291.88776275v131.26951736h447.40451584V544.21453076H150.49686038z m0 0" p-id="2639"></path></svg>