<svg t="1600242235234" class="icon" viewBox="0 0 1024 1024" version="1.1" xmlns="http://www.w3.org/2000/svg" p-id="9571" width="500" height="500"><path d="M940.423554 592.717219c43.779578-43.818948 70.354412-110.551309 79.685131-200.157711A78.740248 78.740248 0 0 0 886.092783 328.740537l-104.803271 104.84264-126.81117-24.881918a49.803207 49.803207 0 0 1-39.291384-39.252014l-24.842548-126.81117L695.14768 137.795435A78.740248 78.740248 0 0 0 631.328709 3.779532c-89.606403 9.330719-156.299393 35.905553-200.118341 79.724501a360.236636 360.236636 0 0 0-68.818977 413.031973L33.729595 826.969458l-0.590552 0.629922a115.039503 115.039503 0 0 0 1.653545 162.677353 116.771788 116.771788 0 0 0 164.567119-1.102364l326.57518-328.346835a360.197266 360.197266 0 0 0 414.449297-68.110315z" p-id="9572"></path></svg>