<svg t="1600242747795" class="icon" viewBox="0 0 1024 1024" version="1.1" xmlns="http://www.w3.org/2000/svg" p-id="2458" width="500" height="500"><path d="M652.72455749 625.27260426C646.42519536 623.22221321 606.66577657 605.28566036 631.50944838 529.70879464L631.1649805 529.70879464C695.92284649 462.98668103 745.41933453 355.55482392 745.41933453 249.82522292 745.41933453 87.230756 637.34564077 2.03067645 511.77268275 2.03067645 386.11826349 2.03067645 278.66600954 87.230756 278.66600954 249.82522292 278.66600954 355.98213462 327.89018072 463.83780907 393.0355748 530.40506589 418.42038831 597.05149573 373.01796166 621.79241104 363.51480415 625.27260155 231.98927942 672.85890065 77.70668309 759.60754395 77.70668309 845.23493287L77.70668309 877.32279094C77.70668309 993.99013837 303.77734175 1020.51248414 513.00625491 1020.51248414 722.54239527 1020.51248414 945.75721981 993.99013837 945.75721981 877.32279094L945.75721981 845.23493287C945.75721981 757.01806599 790.70189352 670.96685973 652.72455749 625.27260426L652.72455749 625.27260426Z" p-id="2459"></path></svg>