<svg t="1600241449125" class="icon" viewBox="0 0 1024 1024" version="1.1" xmlns="http://www.w3.org/2000/svg" p-id="2816" width="500" height="500"><path d="M848.12686222 622.68302222c-16.89372445 8.15559111-36.11761778 8.73813333-54.75896889 2.91271111-18.05880889-5.82542222-32.03982222-19.22389333-40.77795555-37.28270222-16.89372445-36.11761778-1.74762667-78.06065778 33.78744889-94.95438222 37.86524445-18.05880889 65.82727111-50.09863111 79.80828444-89.12896 13.98101333-39.03032889 12.23338667-82.13845333-5.82542222-118.83861334-18.05880889-37.86524445-50.09863111-65.82727111-89.12896-79.80828444s-82.13845333-12.23338667-118.83861334 5.82542222c-37.28270222 16.89372445-58.83676445 44.85575111-71.0701511 86.21624889-12.81592889 47.18592-12.23338667 113.01319111 1.74762666 203.88977778 11.06830222 69.90506667 20.97152 161.94673778 2.91271111 244.08519111-19.80643555 90.87658667-71.07015111 157.2864-152.04352 196.31672889-40.77795555 19.22389333-85.05116445 29.12711111-128.74183111 29.12711111-34.95253333 0-68.15744-5.82542222-100.19726222-16.89372444-75.73048889-27.37948445-135.73233778-80.97336889-170.68487111-153.20860445-33.78744889-72.23523555-39.03032889-153.20860445-12.23338667-228.93909333C48.87893333 496.85390222 104.22044445 435.68696889 175.87313778 401.89952c16.89372445-8.15559111 36.11761778-8.73813333 54.75896889-2.91271111 18.05880889 5.82542222 32.03982222 19.22389333 40.77795555 37.28270222 8.15559111 16.89372445 8.73813333 36.11761778 2.91271111 54.75896889-5.82542222 18.05880889-19.22389333 32.03982222-37.28270222 40.77795555-78.06065778 37.28270222-111.26556445 129.90691555-73.98286222 207.96757334 18.05880889 37.28270222 50.09863111 65.82727111 89.12896 79.80828444s82.13845333 12.23338667 120.00369778-5.82542222c37.28270222-18.05880889 58.83676445-44.85575111 69.90506666-86.21624889 12.81592889-47.18592 12.23338667-113.01319111-1.74762666-203.30723555-12.23338667-75.73048889-20.97152-164.85944889-2.91271112-245.83281778 19.80643555-92.04167111 71.07015111-157.86894222 152.04352-196.31672889 149.13080889-71.07015111 327.97127111-8.15559111 400.20650667 140.97521778 70.48760889 147.96572445 7.57304889 326.80618667-141.55776 399.62396444z" p-id="2817"></path></svg>