<?xml version="1.0" standalone="no"?><!DOCTYPE svg PUBLIC "-//W3C//DTD SVG 1.1//EN" "http://www.w3.org/Graphics/SVG/1.1/DTD/svg11.dtd"><svg t="1592810676056" class="icon" viewBox="0 0 1112 1024" version="1.1" xmlns="http://www.w3.org/2000/svg" p-id="5986" xmlns:xlink="http://www.w3.org/1999/xlink" width="542.96875" height="500"><defs><style type="text/css"></style></defs><path d="M1103.626164 714.111047c0-18.548339-18.548339-37.096678-27.822508-37.096677-27.822508 0-55.645017-27.822508-55.645017-55.645017 0-9.274169 0-18.548339 9.274169-18.548339 9.274169-18.548339 0-37.096678-18.548338-46.370847l-64.919187-37.096678c-18.548339-9.274169-37.096678 0-46.370847 9.274169-9.274169 0-37.096678 18.548339-46.370847 18.548339-18.548339 0-37.096678-18.548339-46.370847-27.822508-9.274169-9.274169-27.822508-9.274169-46.370847-9.274169l-64.919187 37.096677c-18.548339 18.548339-27.822508 37.096678-18.548338 55.645017 0 9.274169 0 18.548339 9.274169 18.548339 0 27.822508-27.822508 55.645017-55.645017 55.645017-18.548339 0-27.822508 9.274169-27.822508 37.096677 0 0-9.274169 27.822508-9.274169 55.645017s9.274169 46.370847 9.274169 55.645017c0 18.548339 18.548339 37.096678 27.822508 37.096677 27.822508 0 55.645017 27.822508 55.645017 55.645017 0 9.274169 0 18.548339-9.274169 18.548339-9.274169 18.548339 0 37.096678 18.548338 46.370847l64.919187 37.096678c18.548339 9.274169 37.096678 0 46.370847-9.274169 9.274169-9.274169 27.822508-27.822508 46.370847-27.822509s37.096678 18.548339 46.370847 27.822509c9.274169 9.274169 27.822508 9.274169 46.370847 9.274169l64.919187-37.096678c18.548339-9.274169 18.548339-27.822508 9.274169-46.370847 0-9.274169 0-18.548339-9.274169-18.548339 0-27.822508 27.822508-55.645017 55.645016-55.645017 18.548339 0 27.822508-9.274169 27.822509-37.096677 0 0 9.274169-27.822508 9.274169-55.645017 9.274169-27.822508 0-55.645017 0-55.645017zM853.223589 862.497758c-55.645017 0-92.741694-46.370847-92.741694-102.015863s37.096678-102.015864 92.741694-102.015864 92.741694 46.370847 92.741694 102.015864-46.370847 102.015864-92.741694 102.015863zM686.288539 472.982642c-92.741694 46.370847-148.386711 129.838372-166.93505 231.854236s9.274169 204.031728 74.193356 287.499253H92.741694c-55.645017 0-92.741694-37.096678-92.741694-83.467525v-27.822509c0-46.370847 37.096678-92.741694 83.467525-111.290033L278.225083 686.288539s55.645017-18.548339 64.919186-37.096678c9.274169-9.274169 9.274169-46.370847 0-74.193355-18.548339-18.548339-111.290033-148.386711-111.290033-259.676745C231.854236 139.112542 343.144269 0 482.256811 0c139.112542 0 250.402575 139.112542 250.402575 315.321761 0 55.645017-18.548339 111.290033-46.370847 157.660881z" p-id="5987"></path></svg>