<?xml version="1.0" standalone="no"?><!DOCTYPE svg PUBLIC "-//W3C//DTD SVG 1.1//EN" "http://www.w3.org/Graphics/SVG/1.1/DTD/svg11.dtd"><svg t="1595300943273" class="icon" viewBox="0 0 1024 1024" version="1.1" xmlns="http://www.w3.org/2000/svg" p-id="997" width="500" height="500"><path d="M618.2 62c25.52958985 0 45.95976563 23.93964844 45.92988281 53.52011719 0 29.64023438-20.39941406 53.60976563-44.66953125 53.60976562H410.06005859c-25.47070313 0-45.9-24.00029297-45.9-53.60976562C364.15917969 85.93964844 384.55859375 62 410.06005859 62h208.1100586zM316.99970703 361.99970703h390.00058594a29.99970703 29.99970703 0 1 1 0 60.00029297H316.99970703a29.99970703 29.99970703 0 1 1 0-60.00029297z m0 180h390.00058594a29.99970703 29.99970703 0 1 1 0 60.00029297H316.99970703a29.99970703 29.99970703 0 1 1 0-60.00029297z m0 180h390.00058594a29.99970703 29.99970703 0 1 1 0 60.00029297H316.99970703a29.99970703 29.99970703 0 1 1 0-60.00029297zM739.82128906 122.00029297c0 65.99970703-12.06035156 101.81953125-75.96035156 101.81953125H360.13994141c-63.60029297 0-75.96035156-47.15947266-75.96035156-101.81953125h-101.25c-42.62958985 0-75.92958985 31.37958985-75.92958985 76.34970703v687.30029297c0 50.42988281 27.29970703 76.34970703 75.92958985 76.34970703h658.17070312c40.5 0 75.89970703-24.87041015 75.89970703-76.35058594V198.35087891c0-49.64941406-28.29023438-76.35058594-75.92958983-76.35058594h-101.25z" p-id="998"></path></svg>