<svg t="1600596398826" class="icon" viewBox="0 0 1024 1024" version="1.1" xmlns="http://www.w3.org/2000/svg" p-id="22008" width="200" height="200"><path d="M511.999488 0c-282.757922 0-511.978511 229.220588-511.978511 511.978511 0 282.757922 229.220588 511.979534 511.978511 511.979534s511.978511-229.221612 511.978511-511.979534C1023.977999 229.220588 794.75741 0 511.999488 0zM511.999488 959.209368c-246.998487 0-447.229834-200.23237-447.229834-447.229834S265.001001 64.748676 511.999488 64.748676c246.998487 0 447.229834 200.231347 447.229834 447.229834S758.997975 959.209368 511.999488 959.209368zM706.760241 382.00225l35.365462 80.857563-202.912409 92.76373-83.171258-171.504072-59.896158 29.04757 0.39295 0.810459-268.986267 125.97104 27.340695 58.378595 269.777283-126.341476 82.752726 170.640402 58.372455-28.306696 0.01228 0.025583 202.154139-92.415806 34.30941 78.444607 92.690052-170.362063L706.760241 382.00225z" p-id="22009"></path></svg>