<svg t="1600595993158" class="icon" viewBox="0 0 1024 1024" version="1.1" xmlns="http://www.w3.org/2000/svg" p-id="2370" width="200" height="200"><path d="M512 0a512 512 0 1 0 512 512A512 512 0 0 0 512 0z m0 961.939394a449.939394 449.939394 0 1 1 449.939394-449.939394 449.939394 449.939394 0 0 1-449.939394 449.939394z m191.612121-689.648485a31.030303 31.030303 0 0 0-43.907879 0L512 420.615758l-144.290909-143.825455a31.030303 31.030303 0 0 0-43.907879 43.907879l116.67394 116.673939h-94.797576a31.030303 31.030303 0 0 0 0 62.060606H480.969697v65.939394h-135.292121a31.030303 31.030303 0 0 0 0 62.060606H480.969697v104.727273a31.030303 31.030303 0 0 0 62.060606 0v-104.727273h139.636364a31.030303 31.030303 0 0 0 0-62.060606h-139.636364v-65.939394h139.636364a31.030303 31.030303 0 0 0 0-62.060606h-100.072728l121.018182-121.018182a31.030303 31.030303 0 0 0 0-44.06303z" p-id="2371"></path></svg>